# xmcd
# 
# Track frame offsets:
#   150
#   12367
#   26885
#   37642
#   49372
#   61835
#   74277
#   87005
# 
# Disc length: 1297 seconds
# 
# Revision: 1
# Processed by: cddbd v1.5.2PL0 Copyright (c) Steve Scherf et al.
# Submitted via: VOLTOCDX V1.0.22 
# 
DISCID=5e050f08
DTITLE=Earl Bostic - Original Blues - Greatest Hits
DYEAR=1994
DGENRE=blues
TTITLE0=Flamingo
TTITLE1=Steep
TTITLE2=Harlem Nocturne
TTITLE3=Night Train
TTITLE4=Temptation
TTITLE5=September Song
TTITLE6=That Old Black Magic
TTITLE7=Southern Fried
EXTD=
EXTT0=
EXTT1=
EXTT2=
EXTT3=
EXTT4=
EXTT5=
EXTT6=
EXTT7=
PLAYORDER=
